<?xml version="1.0" encoding="UTF-8" standalone="no"?>
<!DOCTYPE svg PUBLIC "-//W3C//DTD SVG 1.1//EN"
 "http://www.w3.org/Graphics/SVG/1.1/DTD/svg11.dtd">
<!-- Generated by graphviz version 2.43.0 (0)
 -->
<!-- Title: %3 Pages: 1 -->
<svg width="207pt" height="692pt"
 viewBox="0.00 0.00 207.29 692.00" xmlns="http://www.w3.org/2000/svg" xmlns:xlink="http://www.w3.org/1999/xlink">
<g id="graph0" class="graph" transform="scale(1 1) rotate(0) translate(4 688)">
<title>%3</title>
<polygon fill="white" stroke="transparent" points="-4,4 -4,-688 203.29,-688 203.29,4 -4,4"/>
<!-- c1 -->
<g id="node1" class="node">
<title>c1</title>
<polygon fill="none" stroke="black" points="132.3,-666 120.03,-684 95.5,-684 83.23,-666 95.5,-648 120.03,-648 132.3,-666"/>
<text text-anchor="middle" x="107.77" y="-662.3" font-family="Times,serif" font-size="14.00">c1</text>
</g>
<!-- c2 -->
<g id="node2" class="node">
<title>c2</title>
<polygon fill="none" stroke="black" points="106.3,-594 94.03,-612 69.5,-612 57.23,-594 69.5,-576 94.03,-576 106.3,-594"/>
<text text-anchor="middle" x="81.77" y="-590.3" font-family="Times,serif" font-size="14.00">c2</text>
</g>
<!-- c1&#45;&gt;c2 -->
<g id="edge1" class="edge">
<title>c1&#45;&gt;c2</title>
<path fill="none" stroke="#4f94cd" d="M101.34,-647.7C98.41,-639.81 94.88,-630.3 91.63,-621.55"/>
<polygon fill="#4f94cd" stroke="#4f94cd" points="94.88,-620.26 88.12,-612.1 88.32,-622.7 94.88,-620.26"/>
</g>
<!-- c5 -->
<g id="node5" class="node">
<title>c5</title>
<polygon fill="none" stroke="black" points="132.3,-378 120.03,-396 95.5,-396 83.23,-378 95.5,-360 120.03,-360 132.3,-378"/>
<text text-anchor="middle" x="107.77" y="-374.3" font-family="Times,serif" font-size="14.00">c5</text>
</g>
<!-- c1&#45;&gt;c5 -->
<g id="edge14" class="edge">
<title>c1&#45;&gt;c5</title>
<path fill="none" stroke="#ff6a6a" stroke-width="2" d="M111.01,-647.89C112.81,-637.54 114.86,-624.06 115.77,-612 121.75,-532.22 121.75,-511.78 115.77,-432 115.13,-423.52 113.93,-414.34 112.65,-406.04"/>
<polygon fill="#ff6a6a" stroke="#ff6a6a" stroke-width="2" points="116.09,-405.41 111.01,-396.11 109.18,-406.55 116.09,-405.41"/>
</g>
<!-- c3 -->
<g id="node3" class="node">
<title>c3</title>
<polygon fill="none" stroke="black" points="106.3,-522 94.03,-540 69.5,-540 57.23,-522 69.5,-504 94.03,-504 106.3,-522"/>
<text text-anchor="middle" x="81.77" y="-518.3" font-family="Times,serif" font-size="14.00">c3</text>
</g>
<!-- c2&#45;&gt;c3 -->
<g id="edge2" class="edge">
<title>c2&#45;&gt;c3</title>
<path fill="none" stroke="#4f94cd" d="M81.77,-575.7C81.77,-567.98 81.77,-558.71 81.77,-550.11"/>
<polygon fill="#4f94cd" stroke="#4f94cd" points="85.27,-550.1 81.77,-540.1 78.27,-550.1 85.27,-550.1"/>
</g>
<!-- c4 -->
<g id="node4" class="node">
<title>c4</title>
<polygon fill="none" stroke="black" points="106.3,-450 94.03,-468 69.5,-468 57.23,-450 69.5,-432 94.03,-432 106.3,-450"/>
<text text-anchor="middle" x="81.77" y="-446.3" font-family="Times,serif" font-size="14.00">c4</text>
</g>
<!-- c3&#45;&gt;c4 -->
<g id="edge3" class="edge">
<title>c3&#45;&gt;c4</title>
<path fill="none" stroke="#4f94cd" d="M81.77,-503.7C81.77,-495.98 81.77,-486.71 81.77,-478.11"/>
<polygon fill="#4f94cd" stroke="#4f94cd" points="85.27,-478.1 81.77,-468.1 78.27,-478.1 85.27,-478.1"/>
</g>
<!-- c4&#45;&gt;c5 -->
<g id="edge4" class="edge">
<title>c4&#45;&gt;c5</title>
<path fill="none" stroke="#4f94cd" d="M88.19,-431.7C91.12,-423.81 94.65,-414.3 97.91,-405.55"/>
<polygon fill="#4f94cd" stroke="#4f94cd" points="101.21,-406.7 101.41,-396.1 94.65,-404.26 101.21,-406.7"/>
</g>
<!-- c6 -->
<g id="node6" class="node">
<title>c6</title>
<polygon fill="none" stroke="black" points="49.3,-306 37.03,-324 12.5,-324 0.23,-306 12.5,-288 37.03,-288 49.3,-306"/>
<text text-anchor="middle" x="24.77" y="-302.3" font-family="Times,serif" font-size="14.00">c6</text>
</g>
<!-- c5&#45;&gt;c6 -->
<g id="edge5" class="edge">
<title>c5&#45;&gt;c6</title>
<path fill="none" stroke="#4f94cd" d="M92.54,-364.16C80.1,-353.67 62.31,-338.66 48.08,-326.66"/>
<polygon fill="#4f94cd" stroke="#4f94cd" points="50.08,-323.77 40.17,-319.99 45.56,-329.12 50.08,-323.77"/>
</g>
<!-- c10 -->
<g id="node10" class="node">
<title>c10</title>
<polygon fill="none" stroke="black" points="82.31,-18 66.54,-36 35,-36 19.23,-18 35,0 66.54,0 82.31,-18"/>
<text text-anchor="middle" x="50.77" y="-14.3" font-family="Times,serif" font-size="14.00">c10</text>
</g>
<!-- c5&#45;&gt;c10 -->
<g id="edge15" class="edge">
<title>c5&#45;&gt;c10</title>
<path fill="none" stroke="#ff6a6a" stroke-width="2" d="M101.7,-359.76C92.93,-333.28 77.77,-280.86 77.77,-235 77.77,-235 77.77,-235 77.77,-161 77.77,-120.5 67.04,-74.63 59.1,-46.26"/>
<polygon fill="#ff6a6a" stroke="#ff6a6a" stroke-width="2" points="62.36,-44.93 56.23,-36.29 55.64,-46.87 62.36,-44.93"/>
</g>
<!-- c11 -->
<g id="node11" class="node">
<title>c11</title>
<polygon fill="none" stroke="black" points="169.31,-306 153.54,-324 122,-324 106.23,-306 122,-288 153.54,-288 169.31,-306"/>
<text text-anchor="middle" x="137.77" y="-302.3" font-family="Times,serif" font-size="14.00">c11</text>
</g>
<!-- c5&#45;&gt;c11 -->
<g id="edge10" class="edge">
<title>c5&#45;&gt;c11</title>
<path fill="none" stroke="#4f94cd" d="M115.18,-359.7C118.56,-351.81 122.64,-342.3 126.39,-333.55"/>
<polygon fill="#4f94cd" stroke="#4f94cd" points="129.71,-334.67 130.44,-324.1 123.28,-331.92 129.71,-334.67"/>
</g>
<!-- c14 -->
<g id="node14" class="node">
<title>c14</title>
<polygon fill="none" stroke="black" points="199.31,-90 183.54,-108 152,-108 136.23,-90 152,-72 183.54,-72 199.31,-90"/>
<text text-anchor="middle" x="167.77" y="-86.3" font-family="Times,serif" font-size="14.00">c14</text>
</g>
<!-- c5&#45;&gt;c14 -->
<g id="edge16" class="edge">
<title>c5&#45;&gt;c14</title>
<path fill="none" stroke="#ff6a6a" stroke-width="2" d="M126.55,-369.04C143.69,-360.63 167.94,-345.59 178.77,-324 212.7,-256.33 191.21,-163.24 177.14,-117.95"/>
<polygon fill="#ff6a6a" stroke="#ff6a6a" stroke-width="2" points="180.42,-116.71 174.02,-108.27 173.76,-118.86 180.42,-116.71"/>
</g>
<!-- c7 -->
<g id="node7" class="node">
<title>c7</title>
<polygon fill="none" stroke="black" points="49.3,-234 37.03,-252 12.5,-252 0.23,-234 12.5,-216 37.03,-216 49.3,-234"/>
<text text-anchor="middle" x="24.77" y="-230.3" font-family="Times,serif" font-size="14.00">c7</text>
</g>
<!-- c6&#45;&gt;c7 -->
<g id="edge6" class="edge">
<title>c6&#45;&gt;c7</title>
<path fill="none" stroke="#4f94cd" d="M24.77,-287.7C24.77,-279.98 24.77,-270.71 24.77,-262.11"/>
<polygon fill="#4f94cd" stroke="#4f94cd" points="28.27,-262.1 24.77,-252.1 21.27,-262.1 28.27,-262.1"/>
</g>
<!-- c8 -->
<g id="node8" class="node">
<title>c8</title>
<polygon fill="none" stroke="black" points="49.3,-162 37.03,-180 12.5,-180 0.23,-162 12.5,-144 37.03,-144 49.3,-162"/>
<text text-anchor="middle" x="24.77" y="-158.3" font-family="Times,serif" font-size="14.00">c8</text>
</g>
<!-- c7&#45;&gt;c8 -->
<g id="edge7" class="edge">
<title>c7&#45;&gt;c8</title>
<path fill="none" stroke="#4f94cd" d="M24.77,-215.7C24.77,-207.98 24.77,-198.71 24.77,-190.11"/>
<polygon fill="#4f94cd" stroke="#4f94cd" points="28.27,-190.1 24.77,-180.1 21.27,-190.1 28.27,-190.1"/>
</g>
<!-- c9 -->
<g id="node9" class="node">
<title>c9</title>
<polygon fill="none" stroke="black" points="49.3,-90 37.03,-108 12.5,-108 0.23,-90 12.5,-72 37.03,-72 49.3,-90"/>
<text text-anchor="middle" x="24.77" y="-86.3" font-family="Times,serif" font-size="14.00">c9</text>
</g>
<!-- c8&#45;&gt;c9 -->
<g id="edge8" class="edge">
<title>c8&#45;&gt;c9</title>
<path fill="none" stroke="#4f94cd" d="M24.77,-143.7C24.77,-135.98 24.77,-126.71 24.77,-118.11"/>
<polygon fill="#4f94cd" stroke="#4f94cd" points="28.27,-118.1 24.77,-108.1 21.27,-118.1 28.27,-118.1"/>
</g>
<!-- c9&#45;&gt;c10 -->
<g id="edge9" class="edge">
<title>c9&#45;&gt;c10</title>
<path fill="none" stroke="#4f94cd" d="M31.19,-71.7C34.12,-63.81 37.65,-54.3 40.91,-45.55"/>
<polygon fill="#4f94cd" stroke="#4f94cd" points="44.21,-46.7 44.41,-36.1 37.65,-44.26 44.21,-46.7"/>
</g>
<!-- c12 -->
<g id="node12" class="node">
<title>c12</title>
<polygon fill="none" stroke="black" points="169.31,-234 153.54,-252 122,-252 106.23,-234 122,-216 153.54,-216 169.31,-234"/>
<text text-anchor="middle" x="137.77" y="-230.3" font-family="Times,serif" font-size="14.00">c12</text>
</g>
<!-- c11&#45;&gt;c12 -->
<g id="edge11" class="edge">
<title>c11&#45;&gt;c12</title>
<path fill="none" stroke="#4f94cd" d="M137.77,-287.7C137.77,-279.98 137.77,-270.71 137.77,-262.11"/>
<polygon fill="#4f94cd" stroke="#4f94cd" points="141.27,-262.1 137.77,-252.1 134.27,-262.1 141.27,-262.1"/>
</g>
<!-- c13 -->
<g id="node13" class="node">
<title>c13</title>
<polygon fill="none" stroke="black" points="169.31,-162 153.54,-180 122,-180 106.23,-162 122,-144 153.54,-144 169.31,-162"/>
<text text-anchor="middle" x="137.77" y="-158.3" font-family="Times,serif" font-size="14.00">c13</text>
</g>
<!-- c12&#45;&gt;c13 -->
<g id="edge12" class="edge">
<title>c12&#45;&gt;c13</title>
<path fill="none" stroke="#4f94cd" d="M137.77,-215.7C137.77,-207.98 137.77,-198.71 137.77,-190.11"/>
<polygon fill="#4f94cd" stroke="#4f94cd" points="141.27,-190.1 137.77,-180.1 134.27,-190.1 141.27,-190.1"/>
</g>
<!-- c13&#45;&gt;c14 -->
<g id="edge13" class="edge">
<title>c13&#45;&gt;c14</title>
<path fill="none" stroke="#4f94cd" d="M145.18,-143.7C148.56,-135.81 152.64,-126.3 156.39,-117.55"/>
<polygon fill="#4f94cd" stroke="#4f94cd" points="159.71,-118.67 160.44,-108.1 153.28,-115.92 159.71,-118.67"/>
</g>
</g>
</svg>
