<?xml version="1.0" encoding="UTF-8" standalone="no"?>
<!DOCTYPE svg PUBLIC "-//W3C//DTD SVG 1.1//EN"
 "http://www.w3.org/Graphics/SVG/1.1/DTD/svg11.dtd">
<!-- Generated by graphviz version 2.43.0 (0)
 -->
<!-- Title: %3 Pages: 1 -->
<svg width="746pt" height="246pt"
 viewBox="0.00 0.00 745.50 246.00" xmlns="http://www.w3.org/2000/svg" xmlns:xlink="http://www.w3.org/1999/xlink">
<g id="graph0" class="graph" transform="scale(1 1) rotate(0) translate(4 242)">
<title>%3</title>
<polygon fill="white" stroke="transparent" points="-4,4 -4,-242 741.5,-242 741.5,4 -4,4"/>
<!-- h3edge -->
<g id="node1" class="node">
<title>h3edge</title>
<polygon fill="lightblue" stroke="transparent" points="127.5,-202.5 127.5,-233.5 204.5,-233.5 204.5,-202.5 127.5,-202.5"/>
<polygon fill="none" stroke="black" points="127.5,-202.5 127.5,-233.5 204.5,-233.5 204.5,-202.5 127.5,-202.5"/>
<text text-anchor="start" x="135.5" y="-214.3" font-family="Times,serif" font-size="14.00">H3 edge</text>
<polygon fill="none" stroke="black" points="204.5,-202.5 204.5,-233.5 267.5,-233.5 267.5,-202.5 204.5,-202.5"/>
<text text-anchor="start" x="212.5" y="-214.3" font-family="Times,serif" font-size="14.00">uint64</text>
</g>
<!-- attributes -->
<g id="node2" class="node">
<title>attributes</title>
<polygon fill="lightblue" stroke="transparent" points="8.5,-65.5 8.5,-96.5 97.5,-96.5 97.5,-65.5 8.5,-65.5"/>
<polygon fill="none" stroke="black" points="8.5,-65.5 8.5,-96.5 97.5,-96.5 97.5,-65.5 8.5,-65.5"/>
<text text-anchor="start" x="16.5" y="-77.3" font-family="Times,serif" font-size="14.00">Attributes</text>
<polygon fill="none" stroke="black" points="97.5,-65.5 97.5,-96.5 285.5,-96.5 285.5,-65.5 97.5,-65.5"/>
<text text-anchor="start" x="105.5" y="-77.3" font-family="Times,serif" font-size="14.00">implementation specific</text>
</g>
<!-- h3edge&#45;&gt;attributes -->
<g id="edge1" class="edge">
<title>h3edge:p&#45;&gt;attributes:p</title>
<path fill="none" stroke="black" d="M236.5,-201.5C236.5,-111.23 66.59,-185.16 53.32,-107.72"/>
<polygon fill="black" stroke="black" points="56.79,-107.19 52.5,-97.5 49.81,-107.75 56.79,-107.19"/>
</g>
<!-- longedge -->
<g id="node3" class="node">
<title>longedge</title>
<polygon fill="#ff6a6a" stroke="transparent" points="319.5,-127.5 319.5,-158.5 523.5,-158.5 523.5,-127.5 319.5,-127.5"/>
<polygon fill="none" stroke="black" points="319.5,-127.5 319.5,-158.5 523.5,-158.5 523.5,-127.5 319.5,-127.5"/>
<text text-anchor="start" x="380.5" y="-139.3" font-family="Times,serif" font-size="14.00">In H3 Edge</text>
<polygon fill="none" stroke="black" points="523.5,-127.5 523.5,-158.5 729.5,-158.5 729.5,-127.5 523.5,-127.5"/>
<text text-anchor="start" x="603" y="-139.3" font-family="Times,serif" font-size="14.00">uint64</text>
<polygon fill="#ff6a6a" stroke="transparent" points="319.5,-96.5 319.5,-127.5 523.5,-127.5 523.5,-96.5 319.5,-96.5"/>
<polygon fill="none" stroke="black" points="319.5,-96.5 319.5,-127.5 523.5,-127.5 523.5,-96.5 319.5,-96.5"/>
<text text-anchor="start" x="374.5" y="-108.3" font-family="Times,serif" font-size="14.00">Out H3 Edge</text>
<polygon fill="none" stroke="black" points="523.5,-96.5 523.5,-127.5 729.5,-127.5 729.5,-96.5 523.5,-96.5"/>
<text text-anchor="start" x="603" y="-108.3" font-family="Times,serif" font-size="14.00">uint64</text>
<polygon fill="#ff6a6a" stroke="transparent" points="319.5,-65.5 319.5,-96.5 523.5,-96.5 523.5,-65.5 319.5,-65.5"/>
<polygon fill="none" stroke="black" points="319.5,-65.5 319.5,-96.5 523.5,-96.5 523.5,-65.5 319.5,-65.5"/>
<text text-anchor="start" x="360.5" y="-77.3" font-family="Times,serif" font-size="14.00">Contained Edges</text>
<polygon fill="none" stroke="black" points="523.5,-65.5 523.5,-96.5 729.5,-96.5 729.5,-65.5 523.5,-65.5"/>
<text text-anchor="start" x="554.5" y="-77.3" font-family="Times,serif" font-size="14.00">Compressed bitmap</text>
<polygon fill="#ff6a6a" stroke="transparent" points="319.5,-34.5 319.5,-65.5 523.5,-65.5 523.5,-34.5 319.5,-34.5"/>
<polygon fill="none" stroke="black" points="319.5,-34.5 319.5,-65.5 523.5,-65.5 523.5,-34.5 319.5,-34.5"/>
<text text-anchor="start" x="327.5" y="-46.3" font-family="Times,serif" font-size="14.00">Contained Edge Sequence</text>
<polygon fill="none" stroke="black" points="523.5,-34.5 523.5,-65.5 729.5,-65.5 729.5,-34.5 523.5,-34.5"/>
<text text-anchor="start" x="531.5" y="-46.3" font-family="Times,serif" font-size="14.00">Compressed uint64 vector</text>
<polygon fill="#ff6a6a" stroke="transparent" points="319.5,-3.5 319.5,-34.5 523.5,-34.5 523.5,-3.5 319.5,-3.5"/>
<polygon fill="none" stroke="black" points="319.5,-3.5 319.5,-34.5 523.5,-34.5 523.5,-3.5 319.5,-3.5"/>
<text text-anchor="start" x="341.5" y="-15.3" font-family="Times,serif" font-size="14.00">Aggregated attributes</text>
<polygon fill="none" stroke="black" points="523.5,-3.5 523.5,-34.5 729.5,-34.5 729.5,-3.5 523.5,-3.5"/>
<text text-anchor="start" x="540.5" y="-15.3" font-family="Times,serif" font-size="14.00">implementation specific</text>
</g>
<!-- h3edge&#45;&gt;longedge -->
<g id="edge2" class="edge">
<title>h3edge:p&#45;&gt;longedge:p</title>
<path fill="none" stroke="black" stroke-dasharray="5,2" d="M268.5,-217.5C276.56,-217.5 297.98,-168.65 311.05,-150.33"/>
<polygon fill="black" stroke="black" points="313.49,-152.84 318.5,-143.5 308.76,-147.68 313.49,-152.84"/>
</g>
</g>
</svg>
