<?xml version="1.0" encoding="UTF-8" standalone="no"?>
<!DOCTYPE svg PUBLIC "-//W3C//DTD SVG 1.1//EN"
 "http://www.w3.org/Graphics/SVG/1.1/DTD/svg11.dtd">
<!-- Generated by graphviz version 2.43.0 (0)
 -->
<!-- Title: %3 Pages: 1 -->
<svg width="746pt" height="352pt"
 viewBox="0.00 0.00 745.50 352.00" xmlns="http://www.w3.org/2000/svg" xmlns:xlink="http://www.w3.org/1999/xlink">
<g id="graph0" class="graph" transform="scale(1 1) rotate(0) translate(4 348)">
<title>%3</title>
<polygon fill="white" stroke="transparent" points="-4,4 -4,-348 741.5,-348 741.5,4 -4,4"/>
<!-- h3cell -->
<g id="node1" class="node">
<title>h3cell</title>
<polygon fill="lightblue" stroke="transparent" points="169.5,-308.5 169.5,-339.5 236.5,-339.5 236.5,-308.5 169.5,-308.5"/>
<polygon fill="none" stroke="black" points="169.5,-308.5 169.5,-339.5 236.5,-339.5 236.5,-308.5 169.5,-308.5"/>
<text text-anchor="start" x="177.5" y="-320.3" font-family="Times,serif" font-size="14.00">H3 cell</text>
<polygon fill="none" stroke="black" points="236.5,-308.5 236.5,-339.5 299.5,-339.5 299.5,-308.5 236.5,-308.5"/>
<text text-anchor="start" x="244.5" y="-320.3" font-family="Times,serif" font-size="14.00">uint64</text>
</g>
<!-- h3edge -->
<g id="node2" class="node">
<title>h3edge</title>
<polygon fill="lightblue" stroke="transparent" points="122.5,-234 122.5,-265 351.5,-265 351.5,-234 122.5,-234"/>
<polygon fill="none" stroke="black" points="122.5,-234 122.5,-265 351.5,-265 351.5,-234 122.5,-234"/>
<text text-anchor="start" x="130.5" y="-245.8" font-family="Times,serif" font-size="14.00">Outgoing H3 edge direction n</text>
<polygon fill="lightgray" stroke="transparent" points="351.5,-234 351.5,-265 414.5,-265 414.5,-234 351.5,-234"/>
<polygon fill="none" stroke="black" points="351.5,-234 351.5,-265 414.5,-265 414.5,-234 351.5,-234"/>
<text text-anchor="start" x="373" y="-245.8" font-family="Times,serif" font-size="14.00">[..]</text>
<polygon fill="none" stroke="black" points="122.5,-203 122.5,-234 351.5,-234 351.5,-203 122.5,-203"/>
<text text-anchor="start" x="213.5" y="-214.8" font-family="Times,serif" font-size="14.00">uint64</text>
<polygon fill="lightgray" stroke="transparent" points="351.5,-203 351.5,-234 414.5,-234 414.5,-203 351.5,-203"/>
<polygon fill="none" stroke="black" points="351.5,-203 351.5,-234 414.5,-234 414.5,-203 351.5,-203"/>
<text text-anchor="start" x="359.5" y="-214.8" font-family="Times,serif" font-size="14.00">uint64</text>
</g>
<!-- h3cell&#45;&gt;h3edge -->
<g id="edge1" class="edge">
<title>h3cell:p&#45;&gt;h3edge</title>
<path fill="none" stroke="black" d="M268.5,-307.5C268.5,-298.45 268.5,-288.76 268.5,-279.5"/>
<polygon fill="black" stroke="black" points="272,-279.3 268.5,-269.3 265,-279.3 272,-279.3"/>
</g>
<!-- attributes_n -->
<g id="node3" class="node">
<title>attributes_n</title>
<polygon fill="lightblue" stroke="transparent" points="8.5,-65.5 8.5,-96.5 97.5,-96.5 97.5,-65.5 8.5,-65.5"/>
<polygon fill="none" stroke="black" points="8.5,-65.5 8.5,-96.5 97.5,-96.5 97.5,-65.5 8.5,-65.5"/>
<text text-anchor="start" x="16.5" y="-77.3" font-family="Times,serif" font-size="14.00">Attributes</text>
<polygon fill="none" stroke="black" points="97.5,-65.5 97.5,-96.5 285.5,-96.5 285.5,-65.5 97.5,-65.5"/>
<text text-anchor="start" x="105.5" y="-77.3" font-family="Times,serif" font-size="14.00">implementation specific</text>
</g>
<!-- h3edge&#45;&gt;attributes_n -->
<g id="edge2" class="edge">
<title>h3edge:p_n&#45;&gt;attributes_n:p</title>
<path fill="none" stroke="black" d="M121.5,-218C63.16,-218 53.46,-165.47 52.57,-107.59"/>
<polygon fill="black" stroke="black" points="56.07,-107.47 52.5,-97.5 49.07,-107.53 56.07,-107.47"/>
</g>
<!-- longedge_n -->
<g id="node4" class="node">
<title>longedge_n</title>
<polygon fill="#ff6a6a" stroke="transparent" points="319.5,-127.5 319.5,-158.5 523.5,-158.5 523.5,-127.5 319.5,-127.5"/>
<polygon fill="none" stroke="black" points="319.5,-127.5 319.5,-158.5 523.5,-158.5 523.5,-127.5 319.5,-127.5"/>
<text text-anchor="start" x="380.5" y="-139.3" font-family="Times,serif" font-size="14.00">In H3 Edge</text>
<polygon fill="none" stroke="black" points="523.5,-127.5 523.5,-158.5 729.5,-158.5 729.5,-127.5 523.5,-127.5"/>
<text text-anchor="start" x="603" y="-139.3" font-family="Times,serif" font-size="14.00">uint64</text>
<polygon fill="#ff6a6a" stroke="transparent" points="319.5,-96.5 319.5,-127.5 523.5,-127.5 523.5,-96.5 319.5,-96.5"/>
<polygon fill="none" stroke="black" points="319.5,-96.5 319.5,-127.5 523.5,-127.5 523.5,-96.5 319.5,-96.5"/>
<text text-anchor="start" x="374.5" y="-108.3" font-family="Times,serif" font-size="14.00">Out H3 Edge</text>
<polygon fill="none" stroke="black" points="523.5,-96.5 523.5,-127.5 729.5,-127.5 729.5,-96.5 523.5,-96.5"/>
<text text-anchor="start" x="603" y="-108.3" font-family="Times,serif" font-size="14.00">uint64</text>
<polygon fill="#ff6a6a" stroke="transparent" points="319.5,-65.5 319.5,-96.5 523.5,-96.5 523.5,-65.5 319.5,-65.5"/>
<polygon fill="none" stroke="black" points="319.5,-65.5 319.5,-96.5 523.5,-96.5 523.5,-65.5 319.5,-65.5"/>
<text text-anchor="start" x="360.5" y="-77.3" font-family="Times,serif" font-size="14.00">Contained Edges</text>
<polygon fill="none" stroke="black" points="523.5,-65.5 523.5,-96.5 729.5,-96.5 729.5,-65.5 523.5,-65.5"/>
<text text-anchor="start" x="554.5" y="-77.3" font-family="Times,serif" font-size="14.00">Compressed bitmap</text>
<polygon fill="#ff6a6a" stroke="transparent" points="319.5,-34.5 319.5,-65.5 523.5,-65.5 523.5,-34.5 319.5,-34.5"/>
<polygon fill="none" stroke="black" points="319.5,-34.5 319.5,-65.5 523.5,-65.5 523.5,-34.5 319.5,-34.5"/>
<text text-anchor="start" x="327.5" y="-46.3" font-family="Times,serif" font-size="14.00">Contained Edge Sequence</text>
<polygon fill="none" stroke="black" points="523.5,-34.5 523.5,-65.5 729.5,-65.5 729.5,-34.5 523.5,-34.5"/>
<text text-anchor="start" x="531.5" y="-46.3" font-family="Times,serif" font-size="14.00">Compressed uint64 vector</text>
<polygon fill="#ff6a6a" stroke="transparent" points="319.5,-3.5 319.5,-34.5 523.5,-34.5 523.5,-3.5 319.5,-3.5"/>
<polygon fill="none" stroke="black" points="319.5,-3.5 319.5,-34.5 523.5,-34.5 523.5,-3.5 319.5,-3.5"/>
<text text-anchor="start" x="341.5" y="-15.3" font-family="Times,serif" font-size="14.00">Aggregated attributes</text>
<polygon fill="none" stroke="black" points="523.5,-3.5 523.5,-34.5 729.5,-34.5 729.5,-3.5 523.5,-3.5"/>
<text text-anchor="start" x="540.5" y="-15.3" font-family="Times,serif" font-size="14.00">implementation specific</text>
</g>
<!-- h3edge&#45;&gt;longedge_n -->
<g id="edge3" class="edge">
<title>h3edge:p_n&#45;&gt;longedge_n:p</title>
<path fill="none" stroke="black" stroke-dasharray="5,2" d="M236.5,-202C236.5,-167.93 276.63,-185.18 302.5,-163 307.29,-158.9 308.2,-153.24 310.09,-149.07"/>
<polygon fill="black" stroke="black" points="312.1,-151.94 318.5,-143.5 308.23,-146.11 312.1,-151.94"/>
</g>
</g>
</svg>
